# This file uses centimeters as units for non-parametric coordinates.

mtllib Cube.mtl
g default
v -0.466510 -0.375013 0.250025
v -0.375013 -0.466510 0.250025
v -0.250025 -0.500000 0.250025
v -0.250025 -0.466510 0.375013
v -0.250025 -0.375013 0.466510
v -0.250025 -0.250025 0.500000
v -0.375013 -0.250025 0.466510
v -0.466510 -0.250025 0.375013
v -0.500000 -0.250025 0.250025
v 0.375013 -0.466510 0.250025
v 0.466510 -0.375013 0.250025
v 0.500000 -0.250025 0.250025
v 0.466510 -0.250025 0.375013
v 0.375013 -0.250025 0.466510
v 0.250025 -0.250025 0.500000
v 0.250025 -0.375013 0.466510
v 0.250025 -0.466510 0.375013
v 0.250025 -0.500000 0.250025
v -0.375013 0.466510 0.250025
v -0.466510 0.375013 0.250025
v -0.500000 0.250025 0.250025
v -0.466510 0.250025 0.375013
v -0.375013 0.250025 0.466510
v -0.250025 0.250025 0.500000
v -0.250025 0.375013 0.466510
v -0.250025 0.466510 0.375013
v -0.250025 0.500000 0.250025
v 0.466510 0.375013 0.250025
v 0.375013 0.466510 0.250025
v 0.250025 0.500000 0.250025
v 0.250025 0.466510 0.375013
v 0.250025 0.375013 0.466510
v 0.250025 0.250025 0.500000
v 0.375013 0.250025 0.466510
v 0.466510 0.250025 0.375013
v 0.500000 0.250025 0.250025
v -0.375013 0.250025 -0.466510
v -0.466510 0.250025 -0.375013
v -0.500000 0.250025 -0.250025
v -0.466510 0.375013 -0.250025
v -0.375013 0.466510 -0.250025
v -0.250025 0.500000 -0.250025
v -0.250025 0.466510 -0.375013
v -0.250025 0.375013 -0.466510
v -0.250025 0.250025 -0.500000
v 0.466510 0.250025 -0.375013
v 0.375013 0.250025 -0.466510
v 0.250025 0.250025 -0.500000
v 0.250025 0.375013 -0.466510
v 0.250025 0.466510 -0.375013
v 0.250025 0.500000 -0.250025
v 0.375013 0.466510 -0.250025
v 0.466510 0.375013 -0.250025
v 0.500000 0.250025 -0.250025
v -0.375013 -0.466510 -0.250025
v -0.466510 -0.375013 -0.250025
v -0.500000 -0.250025 -0.250025
v -0.466510 -0.250025 -0.375013
v -0.375013 -0.250025 -0.466510
v -0.250025 -0.250025 -0.500000
v -0.250025 -0.375013 -0.466510
v -0.250025 -0.466510 -0.375013
v -0.250025 -0.500000 -0.250025
v 0.466510 -0.375013 -0.250025
v 0.375013 -0.466510 -0.250025
v 0.250025 -0.500000 -0.250025
v 0.250025 -0.466510 -0.375013
v 0.250025 -0.375013 -0.466510
v 0.250025 -0.250025 -0.500000
v 0.375013 -0.250025 -0.466510
v 0.466510 -0.250025 -0.375013
v 0.500000 -0.250025 -0.250025
v -0.447712 -0.358035 0.358035
v -0.358035 -0.447712 0.358035
v -0.358035 -0.358035 0.447712
v 0.358035 -0.447712 0.358035
v 0.447712 -0.358035 0.358035
v 0.358035 -0.358035 0.447712
v -0.358035 0.447712 0.358035
v -0.447712 0.358035 0.358035
v -0.358035 0.358035 0.447712
v 0.447712 0.358035 0.358035
v 0.358035 0.447712 0.358035
v 0.358035 0.358035 0.447712
v -0.358035 0.358035 -0.447712
v -0.447712 0.358035 -0.358035
v -0.358035 0.447712 -0.358035
v 0.447712 0.358035 -0.358035
v 0.358035 0.358035 -0.447712
v 0.358035 0.447712 -0.358035
v -0.358035 -0.447712 -0.358035
v -0.447712 -0.358035 -0.358035
v -0.358035 -0.358035 -0.447712
v 0.447712 -0.358035 -0.358035
v 0.358035 -0.447712 -0.358035
v 0.358035 -0.358035 -0.447712
vt 0.597852 0.038711
vt 0.597852 0.088901
vt 0.397053 0.088901
vt 0.397053 0.038711
vt 0.648042 0.088901
vt 0.641224 0.045529
vt 0.597852 0.289700
vt 0.397053 0.289700
vt 0.346863 0.088901
vt 0.353680 0.045529
vt 0.597852 0.001970
vt 0.397053 0.001970
vt 0.648042 0.289700
vt 0.641224 0.009519
vt 0.677235 0.045529
vt 0.684783 0.088901
vt 0.597852 0.339890
vt 0.397053 0.339890
vt 0.346863 0.289700
vt 0.310121 0.088901
vt 0.317670 0.045529
vt 0.353680 0.009519
vt 0.684783 0.289700
vt 0.641224 0.333073
vt 0.597852 0.376632
vt 0.397053 0.376632
vt 0.353680 0.333073
vt 0.310121 0.289700
vt 0.677235 0.333073
vt 0.641224 0.369083
vt 0.353680 0.369083
vt 0.317670 0.333073
vt 0.710278 0.467554
vt 0.710278 0.417365
vt 0.911077 0.417365
vt 0.911077 0.467554
vt 0.660088 0.467554
vt 0.666905 0.424182
vt 0.710278 0.380623
vt 0.911077 0.380623
vt 0.961267 0.467554
vt 0.954449 0.424182
vt 0.911077 0.668353
vt 0.710278 0.668353
vt 0.660088 0.668353
vt 0.623347 0.467554
vt 0.630895 0.424182
vt 0.666905 0.388172
vt 0.954449 0.388172
vt 0.961267 0.668353
vt 0.990460 0.424182
vt 0.998008 0.467554
vt 0.710278 0.718543
vt 0.911077 0.718543
vt 0.666905 0.711726
vt 0.623347 0.668353
vt 0.954449 0.711726
vt 0.998008 0.668353
vt 0.710278 0.755285
vt 0.911077 0.755285
vt 0.666905 0.747736
vt 0.630895 0.711726
vt 0.990460 0.711726
vt 0.954449 0.747736
vt 0.052182 0.289700
vt 0.001992 0.289700
vt 0.001992 0.088901
vt 0.052182 0.088901
vt 0.052182 0.339890
vt 0.008809 0.333073
vt 0.052182 0.038711
vt 0.008809 0.045529
vt 0.252981 0.088901
vt 0.252981 0.289700
vt 0.252981 0.339890
vt 0.052182 0.376632
vt 0.008809 0.369083
vt 0.252981 0.038711
vt 0.008809 0.009519
vt 0.052182 0.001970
vt 0.303171 0.289700
vt 0.303171 0.088901
vt 0.296353 0.333073
vt 0.252981 0.376632
vt 0.252981 0.001970
vt 0.296353 0.045529
vt 0.296353 0.369083
vt 0.296353 0.009519
vt 0.316032 0.467554
vt 0.366222 0.467554
vt 0.366222 0.668353
vt 0.316032 0.668353
vt 0.366222 0.417365
vt 0.322850 0.424182
vt 0.567021 0.467554
vt 0.567021 0.668353
vt 0.366222 0.718543
vt 0.322850 0.711726
vt 0.567021 0.417365
vt 0.322850 0.388172
vt 0.366222 0.380623
vt 0.617211 0.467554
vt 0.617211 0.668353
vt 0.567021 0.718543
vt 0.366222 0.755285
vt 0.322850 0.747736
vt 0.567021 0.380623
vt 0.610394 0.424182
vt 0.610394 0.711726
vt 0.567021 0.755285
vt 0.610394 0.388172
vt 0.610394 0.747736
vt 0.058908 0.430813
vt 0.058908 0.380623
vt 0.259707 0.380623
vt 0.259707 0.430813
vt 0.008718 0.430813
vt 0.015536 0.387440
vt 0.309897 0.430813
vt 0.303080 0.387440
vt 0.259707 0.631612
vt 0.058908 0.631612
vt 0.008718 0.631612
vt 0.309897 0.631612
vt 0.058908 0.681802
vt 0.259707 0.681802
vt 0.015536 0.674985
vt 0.303080 0.674985
vt 0.052182 0.986972
vt 0.052182 0.936782
vt 0.252981 0.936782
vt 0.252981 0.986972
vt 0.001992 0.936782
vt 0.008809 0.980155
vt 0.052182 0.735983
vt 0.252981 0.735983
vt 0.303171 0.936782
vt 0.296353 0.980155
vt 0.001992 0.735983
vt 0.052182 0.685793
vt 0.252981 0.685793
vt 0.303171 0.735983
vt 0.008809 0.692611
vt 0.296353 0.692611
vn -0.051094 -0.997386 0.051094
vn -0.498963 -0.865626 0.041553
vn -0.498963 -0.865626 -0.041553
vn -0.051094 -0.997386 -0.051094
vn -0.865626 -0.498963 0.041553
vn -0.865626 -0.498963 -0.041553
vn -0.997386 -0.051094 0.051094
vn -0.997386 -0.051094 -0.051094
vn -0.051094 -0.051094 0.997386
vn -0.041553 -0.498963 0.865626
vn 0.041553 -0.498963 0.865626
vn 0.051094 -0.051094 0.997386
vn -0.041553 -0.865626 0.498963
vn 0.041553 -0.865626 0.498963
vn 0.051094 -0.997386 0.051094
vn -0.865626 -0.041553 0.498963
vn -0.865626 0.041553 0.498963
vn -0.997386 0.051094 0.051094
vn -0.498963 -0.041553 0.865626
vn -0.498963 0.041553 0.865626
vn -0.051094 0.051094 0.997386
vn 0.997386 -0.051094 0.051094
vn 0.865626 -0.498963 0.041553
vn 0.865626 -0.498963 -0.041553
vn 0.997386 -0.051094 -0.051094
vn 0.498963 -0.865626 0.041553
vn 0.498963 -0.865626 -0.041553
vn 0.051094 -0.997386 -0.051094
vn 0.498963 -0.041553 0.865626
vn 0.498963 0.041553 0.865626
vn 0.051094 0.051094 0.997386
vn 0.865626 -0.041553 0.498963
vn 0.865626 0.041553 0.498963
vn 0.997386 0.051094 0.051094
vn -0.865626 0.498963 0.041553
vn -0.865626 0.498963 -0.041553
vn -0.997386 0.051094 -0.051094
vn -0.498963 0.865626 0.041553
vn -0.498963 0.865626 -0.041553
vn -0.051094 0.997386 0.051094
vn -0.051094 0.997386 -0.051094
vn -0.041553 0.865626 0.498963
vn 0.041553 0.865626 0.498963
vn 0.051094 0.997386 0.051094
vn -0.041553 0.498963 0.865626
vn 0.041553 0.498963 0.865626
vn 0.498963 0.865626 0.041553
vn 0.498963 0.865626 -0.041553
vn 0.051094 0.997386 -0.051094
vn 0.865626 0.498963 0.041553
vn 0.865626 0.498963 -0.041553
vn 0.997386 0.051094 -0.051094
vn -0.865626 0.041553 -0.498963
vn -0.865626 -0.041553 -0.498963
vn -0.498963 0.041553 -0.865626
vn -0.498963 -0.041553 -0.865626
vn -0.051094 0.051094 -0.997386
vn -0.051094 -0.051094 -0.997386
vn -0.041553 0.498963 -0.865626
vn 0.041553 0.498963 -0.865626
vn 0.051094 0.051094 -0.997386
vn -0.041553 0.865626 -0.498963
vn 0.041553 0.865626 -0.498963
vn 0.498963 0.041553 -0.865626
vn 0.498963 -0.041553 -0.865626
vn 0.051094 -0.051094 -0.997386
vn 0.865626 0.041553 -0.498963
vn 0.865626 -0.041553 -0.498963
vn -0.041553 -0.865626 -0.498963
vn 0.041553 -0.865626 -0.498963
vn -0.041553 -0.498963 -0.865626
vn 0.041553 -0.498963 -0.865626
vn -0.809119 -0.415528 0.415528
vn -0.415528 -0.809119 0.415528
vn -0.415528 -0.415528 0.809119
vn 0.415528 -0.809119 0.415528
vn 0.809119 -0.415528 0.415528
vn 0.415528 -0.415528 0.809119
vn -0.415528 0.809119 0.415528
vn -0.809119 0.415528 0.415528
vn -0.415528 0.415528 0.809119
vn 0.809119 0.415528 0.415528
vn 0.415528 0.809119 0.415528
vn 0.415528 0.415528 0.809119
vn -0.415528 0.415528 -0.809119
vn -0.809119 0.415528 -0.415528
vn -0.415528 0.809119 -0.415528
vn 0.809119 0.415528 -0.415528
vn 0.415528 0.415528 -0.809119
vn 0.415528 0.809119 -0.415528
vn -0.415528 -0.809119 -0.415528
vn -0.809119 -0.415528 -0.415528
vn -0.415528 -0.415528 -0.809119
vn 0.809119 -0.415528 -0.415528
vn 0.415528 -0.809119 -0.415528
vn 0.415528 -0.415528 -0.809119
s 1
g pCube1
usemtl initialShadingGroup
f 3/65/1 2/66/2 55/67/3 63/68/4
f 2/11/2 1/1/5 56/4/6 55/12/3
f 1/1/5 9/2/7 57/3/8 56/4/6
f 6/113/9 5/114/10 16/115/11 15/116/12
f 5/76/10 4/69/13 17/75/14 16/84/11
f 4/69/13 3/65/1 18/74/15 17/75/14
f 9/2/7 8/5/16 22/13/17 21/7/18
f 8/5/16 7/16/19 23/23/20 22/13/17
f 7/117/19 6/113/9 24/122/21 23/123/20
f 12/33/22 11/34/23 64/35/24 72/36/25
f 11/34/23 10/39/26 65/40/27 64/35/24
f 10/81/26 18/74/15 66/73/28 65/82/27
f 15/116/12 14/119/29 34/124/30 33/121/31
f 14/46/29 13/37/32 35/45/33 34/56/30
f 13/37/32 12/33/22 36/44/34 35/45/33
f 21/7/18 20/17/35 40/18/36 39/8/37
f 20/17/35 19/25/38 41/26/39 40/18/36
f 19/89/38 27/90/40 42/91/41 41/92/39
f 27/90/40 26/93/42 31/99/43 30/95/44
f 26/93/42 25/101/45 32/107/46 31/99/43
f 25/125/45 24/122/21 33/121/31 32/126/46
f 30/95/44 29/102/47 52/103/48 51/96/49
f 29/59/47 28/53/50 53/54/51 52/60/48
f 28/53/50 36/44/34 54/43/52 53/54/51
f 39/8/37 38/19/53 58/9/54 57/3/8
f 38/19/53 37/28/55 59/20/56 58/9/54
f 37/129/55 45/130/57 60/131/58 59/132/56
f 45/130/57 44/133/59 49/139/60 48/135/61
f 44/105/59 43/97/62 50/104/63 49/110/60
f 43/97/62 42/91/41 51/96/49 50/104/63
f 48/135/61 47/140/64 70/141/65 69/136/66
f 47/58/64 46/50/67 71/41/68 70/52/65
f 46/50/67 54/43/52 72/36/25 71/41/68
f 63/68/4 62/71/69 67/78/70 66/73/28
f 62/71/69 61/80/71 68/85/72 67/78/70
f 61/137/71 60/131/58 69/136/66 68/142/72
f 6/113/9 15/116/12 33/121/31 24/122/21
f 27/90/40 30/95/44 51/96/49 42/91/41
f 45/130/57 48/135/61 69/136/66 60/131/58
f 63/68/4 66/73/28 18/74/15 3/65/1
f 12/33/22 72/36/25 54/43/52 36/44/34
f 57/3/8 9/2/7 21/7/18 39/8/37
f 8/5/16 9/2/7 1/1/5 73/6/73
f 73/6/73 1/1/5 2/11/2 74/14/74
f 2/66/2 3/65/1 4/69/13 74/70/74
f 74/70/74 4/69/13 5/76/10 75/77/75
f 5/114/10 6/113/9 7/117/19 75/118/75
f 75/15/75 7/16/19 8/5/16 73/6/73
f 73/6/73 74/14/74 75/15/75
f 17/75/14 18/74/15 10/81/26 76/83/76
f 76/48/76 10/39/26 11/34/23 77/38/77
f 11/34/23 12/33/22 13/37/32 77/38/77
f 77/38/77 13/37/32 14/46/29 78/47/78
f 14/119/29 15/116/12 16/115/11 78/120/78
f 78/87/78 16/84/11 17/75/14 76/83/76
f 76/48/76 77/38/77 78/47/78
f 26/93/42 27/90/40 19/89/38 79/94/79
f 79/30/79 19/25/38 20/17/35 80/24/80
f 20/17/35 21/7/18 22/13/17 80/24/80
f 80/24/80 22/13/17 23/23/20 81/29/81
f 23/123/20 24/122/21 25/125/45 81/127/81
f 81/100/81 25/101/45 26/93/42 79/94/79
f 79/30/79 80/24/80 81/29/81
f 35/45/33 36/44/34 28/53/50 82/55/82
f 82/55/82 28/53/50 29/59/47 83/61/83
f 29/102/47 30/95/44 31/99/43 83/108/83
f 83/108/83 31/99/43 32/107/46 84/111/84
f 32/126/46 33/121/31 34/124/30 84/128/84
f 84/62/84 34/56/30 35/45/33 82/55/82
f 82/55/82 83/61/83 84/62/84
f 44/133/59 45/130/57 37/129/55 85/134/85
f 85/32/85 37/28/55 38/19/53 86/27/86
f 38/19/53 39/8/37 40/18/36 86/27/86
f 86/27/86 40/18/36 41/26/39 87/31/87
f 41/92/39 42/91/41 43/97/62 87/98/87
f 87/98/87 43/97/62 44/105/59 85/106/85
f 85/32/85 86/27/86 87/31/87
f 53/54/51 54/43/52 46/50/67 88/57/88
f 88/57/88 46/50/67 47/58/64 89/63/89
f 47/140/64 48/135/61 49/139/60 89/143/89
f 89/112/89 49/110/60 50/104/63 90/109/90
f 50/104/63 51/96/49 52/103/48 90/109/90
f 90/64/90 52/60/48 53/54/51 88/57/88
f 88/57/88 89/63/89 90/64/90
f 62/71/69 63/68/4 55/67/3 91/72/91
f 91/22/91 55/12/3 56/4/6 92/10/92
f 56/4/6 57/3/8 58/9/54 92/10/92
f 92/10/92 58/9/54 59/20/56 93/21/93
f 59/132/56 60/131/58 61/137/71 93/138/93
f 93/79/93 61/80/71 62/71/69 91/72/91
f 91/22/91 92/10/92 93/21/93
f 71/41/68 72/36/25 64/35/24 94/42/94
f 94/42/94 64/35/24 65/40/27 95/49/95
f 65/82/27 66/73/28 67/78/70 95/86/95
f 95/86/95 67/78/70 68/85/72 96/88/96
f 68/142/72 69/136/66 70/141/65 96/144/96
f 96/51/96 70/52/65 71/41/68 94/42/94
f 94/42/94 95/49/95 96/51/96
