# This file uses centimeters as units for non-parametric coordinates.

mtllib u.mtl
g default
v 1.075870 0.697056 -0.812056
v 1.075698 0.643766 -0.828721
v 1.022137 0.644525 -0.810649
v 0.999959 0.645414 -0.767020
v 1.022163 0.697739 -0.768248
v 1.075738 0.719428 -0.768428
v 0.999482 -0.291458 -0.731764
v 1.021146 -0.305134 -0.774938
v 1.073491 -0.310799 -0.792824
v 0.999029 -0.545493 -0.623846
v 1.020670 -0.576655 -0.659602
v 1.073011 -0.589567 -0.674416
v 0.998665 -0.750125 -0.453245
v 1.020290 -0.793022 -0.479226
v 1.072629 -0.810798 -0.489992
v 0.998430 -0.881506 -0.238283
v 1.020045 -0.931938 -0.251943
v 1.072382 -0.952837 -0.257604
v 0.998350 -0.926779 0.000000
v 1.019960 -0.979805 0.000000
v 1.072295 -1.001781 0.000000
v 0.998430 -0.881512 0.238285
v 1.020043 -0.931939 0.251944
v 1.072376 -0.952837 0.257604
v 0.998665 -0.750135 0.453251
v 1.020286 -0.793025 0.479228
v 1.072617 -0.810798 0.489992
v 0.999029 -0.545502 0.623858
v 1.020665 -0.576658 0.659605
v 1.072994 -0.589567 0.674416
v 0.999482 -0.291462 0.731778
v 1.021141 -0.305135 0.774942
v 1.073474 -0.310799 0.792824
v 1.075870 0.697056 0.812056
v 1.075738 0.719428 0.768428
v 1.022163 0.697745 0.768257
v 0.999959 0.645435 0.767038
v 1.022138 0.644605 0.810657
v 1.075698 0.643766 0.828721
v 1.072920 0.698152 -0.427878
v 1.073059 0.719429 -0.471506
v 1.021389 0.697751 -0.471403
v 0.999975 0.645426 -0.470692
v 1.021374 0.645948 -0.427070
v 1.073037 0.646393 -0.409002
v 0.999686 -0.173042 -0.452768
v 1.021385 -0.159835 -0.409423
v 1.073723 -0.154365 -0.391471
v 0.999402 -0.336040 -0.383523
v 1.021123 -0.304904 -0.347798
v 1.073465 -0.292011 -0.333005
v 0.999178 -0.461834 -0.278637
v 1.020913 -0.418988 -0.252687
v 1.073254 -0.401248 -0.241942
v 0.999034 -0.542594 -0.146485
v 1.020777 -0.492233 -0.132844
v 1.073116 -0.471383 -0.127197
v 0.998985 -0.570419 0.000000
v 1.020730 -0.517470 0.000000
v 1.073067 -0.495549 0.000000
v 0.999034 -0.542588 0.146483
v 1.020775 -0.492231 0.132844
v 1.073110 -0.471383 0.127196
v 0.999178 -0.461824 0.278631
v 1.020909 -0.418985 0.252685
v 1.073241 -0.401248 0.241942
v 0.999403 -0.336030 0.383511
v 1.021118 -0.304901 0.347795
v 1.073448 -0.292011 0.333005
v 0.999687 -0.173038 0.452755
v 1.021381 -0.159833 0.409418
v 1.073707 -0.154365 0.391471
v 1.072920 0.698152 0.427878
v 1.073037 0.646393 0.409002
v 1.021374 0.645941 0.427073
v 0.999975 0.645415 0.470701
v 1.021389 0.697747 0.471407
v 1.073059 0.719428 0.471506
v 1.520991 0.697745 -0.769059
v 1.542651 0.645395 -0.767004
v 1.520970 0.645510 -0.810695
v 1.468638 0.645491 -0.828786
v 1.468655 0.697566 -0.812496
v 1.468657 0.719428 -0.769851
v 1.468156 -0.310799 -0.792824
v 1.520482 -0.305139 -0.774956
v 1.542174 -0.291474 -0.731814
v 1.520990 0.645391 -0.427057
v 1.542667 0.645415 -0.470701
v 1.521001 0.697749 -0.471872
v 1.468665 0.719429 -0.472310
v 1.468665 0.697874 -0.428106
v 1.468653 0.645440 -0.408981
v 1.542378 -0.173055 -0.452810
v 1.520716 -0.159839 -0.409439
v 1.468371 -0.154365 -0.391471
v 1.467676 -0.589567 -0.674416
v 1.520006 -0.576677 -0.659627
v 1.541721 -0.545548 -0.623910
v 1.542094 -0.336085 -0.383575
v 1.520453 -0.304923 -0.347820
v 1.468113 -0.292011 -0.333005
v 1.467294 -0.810798 -0.489992
v 1.519625 -0.793061 -0.479249
v 1.541356 -0.750222 -0.453303
v 1.541870 -0.461921 -0.278690
v 1.520245 -0.419024 -0.252709
v 1.467906 -0.401248 -0.241942
v 1.467047 -0.952837 -0.257604
v 1.519381 -0.931989 -0.251957
v 1.541122 -0.881632 -0.238317
v 1.541726 -0.542714 -0.146517
v 1.520111 -0.492282 -0.132858
v 1.467774 -0.471383 -0.127197
v 1.466959 -1.001781 0.000000
v 1.519296 -0.979860 0.000000
v 1.541041 -0.926911 0.000000
v 1.541676 -0.570551 0.000000
v 1.520066 -0.517525 0.000000
v 1.467731 -0.495549 0.000000
v 1.467040 -0.952837 0.257604
v 1.519379 -0.931987 0.251957
v 1.541122 -0.881625 0.238316
v 1.541726 -0.542708 0.146516
v 1.520113 -0.492281 0.132857
v 1.467781 -0.471383 0.127196
v 1.467281 -0.810798 0.489992
v 1.519622 -0.793058 0.479248
v 1.541356 -0.750212 0.453297
v 1.541870 -0.461911 0.278683
v 1.520248 -0.419021 0.252707
v 1.467918 -0.401248 0.241942
v 1.467659 -0.589567 0.674416
v 1.520001 -0.576674 0.659623
v 1.541721 -0.545538 0.623899
v 1.542094 -0.336075 0.383563
v 1.520458 -0.304920 0.347816
v 1.468129 -0.292011 0.333005
v 1.468139 -0.310799 0.792824
v 1.520477 -0.305138 0.774952
v 1.542174 -0.291469 0.731799
v 1.542378 -0.173051 0.452797
v 1.520721 -0.159838 0.409435
v 1.468387 -0.154365 0.391471
v 1.520991 0.697745 0.769059
v 1.468657 0.719428 0.769850
v 1.467767 0.697059 0.812480
v 1.466910 0.643766 0.828721
v 1.520468 0.644584 0.810647
v 1.542651 0.645395 0.767004
v 1.521001 0.697746 0.471877
v 1.542667 0.645403 0.470710
v 1.520990 0.645385 0.427060
v 1.468653 0.645440 0.408981
v 1.468665 0.697874 0.428106
v 1.468665 0.719428 0.472310
v 1.032055 0.687617 -0.803825
v 1.032056 0.687648 0.803830
v 1.030831 0.688428 -0.435777
v 1.030831 0.688424 0.435778
v 1.511367 0.688037 -0.804188
v 1.511383 0.688197 -0.435963
v 1.510995 0.687647 0.804168
v 1.511383 0.688194 0.435965
vt 0.496454 0.000562
vt 0.495910 0.000648
vt 0.496454 0.311938
vt 0.500000 0.312500
vt 0.495910 0.311852
vt 0.500000 0.312500
vt 0.500000 -0.000000
vt 0.500000 -0.000000
vt 0.495909 0.000648
vt 0.495912 0.000647
vt 0.500000 0.312500
vt 0.495909 0.311852
vt 0.495910 0.311852
vt 0.495910 0.000648
vt 0.451957 0.007609
vt 0.450507 0.008264
vt 0.408159 0.029841
vt 0.408159 0.029841
vt 0.373591 0.064409
vt 0.373591 0.064409
vt 0.351397 0.107966
vt 0.351397 0.107966
vt 0.343750 0.156250
vt 0.343750 0.156250
vt 0.351397 0.204534
vt 0.351397 0.204534
vt 0.373591 0.248091
vt 0.373591 0.248091
vt 0.408159 0.282659
vt 0.408159 0.282659
vt 0.451957 0.304891
vt 0.451119 0.304548
vt 0.450506 0.008264
vt 0.408159 0.029841
vt 0.451957 0.007609
vt 0.373591 0.064409
vt 0.408159 0.029841
vt 0.351397 0.107966
vt 0.373591 0.064409
vt 0.343750 0.156250
vt 0.351397 0.107966
vt 0.351397 0.204534
vt 0.343750 0.156250
vt 0.373591 0.248091
vt 0.351397 0.204534
vt 0.408159 0.282659
vt 0.373591 0.248091
vt 0.451119 0.304548
vt 0.408159 0.282659
vt 0.495911 0.311852
vt 0.451957 0.304891
vt 0.496535 0.000549
vt 0.451716 0.007647
vt 0.500000 -0.000000
vt 0.500000 -0.000000
vt 0.495964 0.000639
vt 0.451716 0.007647
vt 0.451716 0.007647
vt 0.408159 0.029841
vt 0.408159 0.029841
vt 0.451716 0.007647
vt 0.408159 0.029841
vt 0.373591 0.064409
vt 0.373591 0.064409
vt 0.408159 0.029841
vt 0.373591 0.064409
vt 0.351397 0.107966
vt 0.351397 0.107966
vt 0.373591 0.064409
vt 0.351397 0.107966
vt 0.343750 0.156250
vt 0.343750 0.156250
vt 0.351397 0.107966
vt 0.343750 0.156250
vt 0.351397 0.204534
vt 0.351397 0.204534
vt 0.343750 0.156250
vt 0.351397 0.204534
vt 0.373591 0.248091
vt 0.373591 0.248091
vt 0.351397 0.204534
vt 0.373591 0.248091
vt 0.408159 0.282659
vt 0.408159 0.282659
vt 0.373591 0.248091
vt 0.408159 0.282659
vt 0.451716 0.304853
vt 0.451716 0.304853
vt 0.408159 0.282659
vt 0.451716 0.304853
vt 0.495964 0.311861
vt 0.451716 0.304853
vt 0.500000 0.312500
vt 0.495911 0.000648
vt 0.496454 0.311938
vt 0.495912 0.311852
vt 0.498457 0.000244
vt 0.497819 0.000345
vt 0.497819 0.000345
vt 0.500000 -0.000000
vt 0.500000 -0.000000
vt 0.451716 0.007647
vt 0.451716 0.007647
vt 0.408159 0.029841
vt 0.408159 0.029841
vt 0.373591 0.064409
vt 0.373591 0.064409
vt 0.351397 0.107966
vt 0.351397 0.107966
vt 0.343750 0.156250
vt 0.343750 0.156250
vt 0.351397 0.204534
vt 0.351397 0.204534
vt 0.373591 0.248091
vt 0.373591 0.248091
vt 0.408159 0.282659
vt 0.408159 0.282659
vt 0.451716 0.304853
vt 0.451716 0.304853
vt 0.498457 0.312256
vt 0.500000 0.312500
vt 0.500000 0.312500
vt 0.497821 0.312155
vt 0.497821 0.312155
vt 0.498249 0.000277
vt 0.500000 -0.000000
vt 0.500000 -0.000000
vt 0.497460 0.000402
vt 0.497460 0.000402
vt 0.451716 0.007647
vt 0.451716 0.007647
vt 0.408159 0.029841
vt 0.408159 0.029841
vt 0.373591 0.064409
vt 0.373591 0.064409
vt 0.351397 0.107966
vt 0.351397 0.107966
vt 0.343750 0.156250
vt 0.343750 0.156250
vt 0.351397 0.204534
vt 0.351397 0.204534
vt 0.373591 0.248091
vt 0.373591 0.248091
vt 0.408159 0.282659
vt 0.408159 0.282659
vt 0.451716 0.304853
vt 0.451716 0.304853
vt 0.498249 0.312223
vt 0.497460 0.312098
vt 0.497460 0.312098
vt 0.500000 0.312500
vt 0.500000 0.312500
vt 0.498252 0.000277
vt 0.496351 0.000578
vt 0.498487 0.000240
vt 0.451716 0.007647
vt 0.495981 0.000637
vt 0.498242 0.000278
vt 0.498229 0.000280
vt 0.451716 0.007647
vt 0.408159 0.029841
vt 0.408159 0.029841
vt 0.373591 0.064409
vt 0.373591 0.064409
vt 0.351397 0.107966
vt 0.351397 0.107966
vt 0.343750 0.156250
vt 0.343750 0.156250
vt 0.351397 0.204534
vt 0.351397 0.204534
vt 0.373591 0.248091
vt 0.373591 0.248091
vt 0.408159 0.282659
vt 0.408159 0.282659
vt 0.451716 0.304853
vt 0.451716 0.304853
vt 0.498251 0.312223
vt 0.498468 0.312257
vt 0.496304 0.311914
vt 0.498242 0.312221
vt 0.495986 0.311864
vt 0.498229 0.312220
vt 0.500000 -0.000000
vt 0.500000 -0.000000
vt 0.500000 0.312500
vt 0.500000 0.312500
vt 0.500000 -0.000000
vt 0.500000 -0.000000
vt 0.500000 0.312500
vt 0.500000 0.312500
vt 0.500000 -0.000000
vt 0.500000 -0.000000
vt 0.500000 0.312500
vt 0.500000 0.312500
vn -0.039497 -0.020044 -0.999019
vn -0.027707 0.295282 -0.955008
vn 0.024980 0.295207 -0.955107
vn 0.039431 -0.019938 -0.999023
vn -0.031594 0.891340 -0.452234
vn -0.046167 0.997001 -0.062112
vn 0.046024 0.996981 -0.062528
vn 0.028471 0.891473 -0.452178
vn -0.997261 0.021295 -0.070830
vn -0.894387 -0.002000 -0.447289
vn -0.897492 -0.052177 -0.437933
vn -0.995944 -0.010069 -0.089409
vn -0.321701 -0.023073 -0.946560
vn -0.039196 -0.124024 -0.991505
vn -0.329796 -0.115382 -0.936975
vn -0.376372 0.925399 -0.044517
vn -0.377481 0.925267 0.037261
vn -0.046636 0.997079 0.060488
vn -0.923924 0.379972 -0.044562
vn -0.998009 0.024208 0.058241
vn -0.923928 0.380681 0.037934
vn -0.046097 0.996968 0.062695
vn -0.030993 0.889426 0.456027
vn 0.028409 0.888930 0.457162
vn 0.046183 0.996953 0.062858
vn -0.026663 0.292125 0.956008
vn -0.039644 -0.019982 0.999014
vn 0.039597 -0.019912 0.999017
vn 0.026279 0.291058 0.956344
vn -0.997259 0.021291 0.070861
vn -0.923908 0.380018 0.044490
vn -0.923922 0.380692 -0.037966
vn -0.998010 0.024207 -0.058230
vn -0.376315 0.925424 0.044470
vn -0.046632 0.997079 -0.060491
vn -0.377470 0.925272 -0.037271
vn -0.029081 0.900280 0.434339
vn 0.030738 0.900198 0.434395
vn 0.046691 0.997088 0.060295
vn -0.025594 0.339472 0.940268
vn -0.039786 0.042020 0.998324
vn 0.039868 0.041915 0.998325
vn 0.027059 0.339510 0.940213
vn -0.043188 0.080822 -0.995793
vn -0.332375 0.077578 -0.939951
vn -0.326767 0.033771 -0.944502
vn -0.039781 0.042021 -0.998324
vn -0.899172 0.038089 -0.435935
vn -0.999038 0.004435 -0.043627
vn -0.897409 0.024472 -0.440520
vn -0.025601 0.339471 -0.940268
vn 0.027066 0.339510 -0.940213
vn 0.039863 0.041916 -0.998326
vn -0.029089 0.900280 -0.434338
vn 0.046693 0.997088 -0.060297
vn 0.030745 0.900198 -0.434394
vn 0.997272 0.020345 -0.070950
vn 0.925318 0.376785 -0.042665
vn 0.924501 0.379132 0.039466
vn 0.998051 0.023248 0.057908
vn 0.379192 0.924447 -0.040147
vn 0.378331 0.924774 0.040728
vn 0.325238 -0.024343 -0.945319
vn 0.332254 -0.116518 -0.935965
vn 0.039178 -0.123998 -0.991509
vn 0.896529 -0.003207 -0.442974
vn 0.995964 -0.011580 -0.089004
vn 0.898926 -0.053723 -0.434793
vn 0.896359 0.024193 0.442668
vn 0.898417 0.037176 0.437566
vn 0.999052 0.003064 0.043412
vn 0.324759 0.034227 0.945178
vn 0.043200 0.080696 0.995802
vn 0.330857 0.077093 0.940527
vn 0.379072 0.924426 0.041725
vn 0.378363 0.924761 -0.040728
vn 0.925351 0.376511 0.044336
vn 0.997250 0.020417 0.071240
vn 0.998052 0.023249 -0.057902
vn 0.924511 0.379105 -0.039479
vn 0.996214 -0.046364 -0.073537
vn 0.999301 0.018007 0.032769
vn 0.996543 -0.063381 -0.053702
vn 0.999401 0.025293 0.023601
vn 0.996842 -0.074214 -0.028237
vn 0.999471 0.030054 0.012411
vn 0.996957 -0.077951 0.000001
vn 0.999498 0.031695 -0.000001
vn 0.996842 -0.074219 0.028242
vn 0.999471 0.030052 -0.012411
vn 0.996543 -0.063388 0.053711
vn 0.999402 0.025289 -0.023598
vn 0.996213 -0.046372 0.073550
vn 0.999301 0.018003 -0.032763
vn 0.995893 -0.011575 0.089791
vn 0.999053 0.003064 -0.043408
vn -0.999038 0.004435 0.043634
vn -0.996361 -0.042917 -0.073644
vn -0.999233 0.021532 0.032718
vn -0.996749 -0.059968 -0.053803
vn -0.999308 0.028807 0.023549
vn -0.997086 -0.070836 -0.028298
vn -0.999361 0.033545 0.012378
vn -0.997215 -0.074583 -0.000001
vn -0.999381 0.035176 -0.000001
vn -0.997087 -0.070831 0.028294
vn -0.999361 0.033541 -0.012377
vn -0.996750 -0.059959 0.053792
vn -0.999308 0.028801 -0.023544
vn -0.996362 -0.042907 0.073627
vn -0.999233 0.021526 -0.032710
vn -0.995945 -0.010067 0.089398
vn -0.043191 0.080819 0.995793
vn -0.041357 -0.517661 -0.854586
vn 0.041278 -0.517591 -0.854632
vn -0.045638 0.517635 0.854384
vn 0.045690 0.517322 0.854570
vn -0.043773 -0.753166 -0.656373
vn 0.043662 -0.753125 -0.656427
vn -0.048138 0.753092 0.656152
vn 0.048211 0.752893 0.656375
vn -0.046024 -0.930748 -0.362754
vn 0.045892 -0.930739 -0.362792
vn -0.050593 0.930568 0.362607
vn 0.050685 0.930500 0.362767
vn -0.046978 -0.998896 -0.000000
vn 0.046840 -0.998902 0.000000
vn -0.051635 0.998666 -0.000004
vn 0.051734 0.998661 -0.000004
vn -0.046020 -0.930748 0.362754
vn 0.045895 -0.930739 0.362793
vn -0.050588 0.930565 -0.362615
vn 0.050680 0.930498 -0.362775
vn -0.043767 -0.753166 0.656373
vn 0.043668 -0.753124 0.656427
vn -0.048128 0.753088 -0.656157
vn 0.048201 0.752889 -0.656380
vn -0.041349 -0.517661 0.854586
vn 0.041285 -0.517591 0.854632
vn -0.045628 0.517633 -0.854385
vn 0.045679 0.517321 -0.854572
vn -0.039270 -0.124205 0.991479
vn 0.039260 -0.124128 0.991489
vn 0.043196 0.080699 -0.995802
vn -0.907336 -0.216866 -0.360154
vn -0.346907 -0.485673 -0.802358
vn -0.916028 -0.301683 -0.264349
vn -0.364283 -0.701860 -0.612120
vn -0.923248 -0.357755 -0.140084
vn -0.380407 -0.861612 -0.336028
vn -0.926050 -0.377402 -0.000006
vn -0.387154 -0.922015 -0.000008
vn -0.923248 -0.357760 0.140074
vn -0.380410 -0.861617 0.336013
vn -0.916028 -0.301688 0.264341
vn -0.364284 -0.701867 0.612111
vn -0.907336 -0.216869 0.360151
vn -0.346907 -0.485676 0.802355
vn -0.897472 -0.052176 0.437974
vn -0.329760 -0.115372 0.936989
vn -0.894366 -0.001981 0.447332
vn -0.321640 -0.023049 0.946581
vn -0.326742 0.033764 0.944510
vn -0.332357 0.077577 0.939958
vn -0.897393 0.024460 0.440555
vn -0.899159 0.038084 0.435962
vn -0.346490 0.486268 0.802177
vn -0.906725 0.219152 0.360308
vn -0.363691 0.702606 0.611616
vn -0.915246 0.304444 0.263891
vn -0.379650 0.862087 0.335666
vn -0.922292 0.360328 0.139788
vn -0.386328 0.922361 -0.000006
vn -0.925029 0.379898 -0.000007
vn -0.379650 0.862083 -0.335677
vn -0.922292 0.360324 -0.139800
vn -0.363690 0.702600 -0.611623
vn -0.915245 0.304438 -0.263900
vn -0.346490 0.486266 -0.802178
vn -0.906725 0.219149 -0.360311
vn 0.346506 -0.486410 -0.802084
vn 0.906788 -0.219826 -0.359739
vn 0.907284 0.216166 0.360704
vn 0.346870 0.485036 0.802758
vn 0.363679 -0.702451 -0.611801
vn 0.915243 -0.304434 -0.263913
vn 0.916028 0.301675 0.264358
vn 0.364272 0.701710 0.612298
vn 0.379648 -0.862038 -0.335795
vn 0.922291 -0.360327 -0.139802
vn 0.923248 0.357756 0.140084
vn 0.380407 0.861566 0.336146
vn 0.386330 -0.922361 0.000008
vn 0.925028 -0.379898 0.000006
vn 0.926049 0.377403 -0.000007
vn 0.387159 0.922013 -0.000006
vn 0.379647 -0.862033 0.335808
vn 0.922291 -0.360323 0.139813
vn 0.923247 0.357753 -0.140097
vn 0.380407 0.861562 -0.336157
vn 0.363679 -0.702443 0.611810
vn 0.915243 -0.304428 0.263919
vn 0.916027 0.301670 -0.264366
vn 0.364270 0.701704 -0.612306
vn 0.346505 -0.486406 0.802087
vn 0.906789 -0.219822 0.359739
vn 0.907284 0.216164 -0.360706
vn 0.346869 0.485034 -0.802760
vn 0.329697 -0.115725 0.936967
vn 0.897360 -0.053617 0.438031
vn 0.898428 0.037180 -0.437544
vn 0.330876 0.077094 -0.940520
vn 0.321697 -0.023848 0.946542
vn 0.894262 -0.003458 0.447531
vn 0.896374 0.024206 -0.442638
vn 0.324784 0.034234 -0.945169
vn -0.310521 0.864991 -0.394166
vn -0.273273 0.254679 -0.927610
vn -0.864052 0.313964 -0.393499
vn -0.272889 0.254821 0.927684
vn -0.310187 0.865205 0.393961
vn -0.864054 0.314222 0.393287
vn -0.284634 0.295164 0.912064
vn -0.322361 0.869752 0.373651
vn -0.870172 0.320528 0.374249
vn -0.322440 0.869730 -0.373635
vn -0.284705 0.295148 -0.912048
vn -0.870214 0.320476 -0.374197
vn 0.320782 0.863107 -0.390059
vn 0.871709 0.305228 -0.383353
vn 0.282304 0.251686 -0.925721
vn 0.279496 0.296900 0.913089
vn 0.866115 0.324921 0.379831
vn 0.316617 0.870790 0.376136
vn 0.867328 0.301373 0.396127
vn 0.317684 0.858316 0.402952
vn 0.275174 0.243874 0.929949
vn 0.316692 0.870772 -0.376115
vn 0.866155 0.324874 -0.379780
vn 0.279563 0.296887 -0.913073
s 1
g pCylinder2
usemtl initialShadingGroup
f 2/1/1 1/97/2 83/155/3 82/52/4
s 2
f 1/97/5 6/54/6 84/7/7 83/155/8
s 3
f 4/2/9 3/98/10 8/103/11 7/33/12
s 1
f 3/99/13 2/1/1 9/58/14 8/102/15
s 2
f 6/54/6 5/100/16 42/127/17 41/55/18
s 3
f 5/101/19 4/2/9 43/94/20 42/126/21
s 4
f 35/4/22 34/120/23 147/178/24 146/93/25
s 1
f 34/120/26 39/3/27 148/95/28 147/178/29
s 3
f 37/50/30 36/121/31 77/152/32 76/5/33
s 4
f 36/122/34 35/4/22 78/6/35 77/151/36
s 2
f 41/55/18 40/125/37 92/159/38 91/8/39
s 7
f 40/125/40 45/56/41 93/10/42 92/159/43
f 72/88/44 71/146/45 75/150/46 74/91/47
s 3
f 71/147/48 70/51/49 76/5/33 75/149/50
s 7
f 74/91/47 73/148/51 155/182/52 154/96/53
s 4
f 73/148/54 78/6/35 156/11/55 155/182/56
s 10
f 80/9/57 79/153/58 90/158/59 89/14/60
s 2
f 79/153/61 84/7/7 91/8/39 90/158/62
s 1
f 82/52/4 81/154/63 86/156/64 85/53/65
s 10
f 81/154/66 80/9/57 87/16/67 86/156/68
f 89/14/60 88/157/69 95/160/70 94/15/71
s 7
f 88/157/72 93/10/42 96/61/73 95/160/74
s 4
f 146/93/25 145/177/75 151/180/76 156/11/55
s 10
f 145/177/77 150/12/78 152/13/79 151/180/80
f 87/16/67 80/9/57 89/14/60 94/15/71
f 99/18/81 87/16/67 94/15/71 100/17/82
f 105/20/83 99/18/81 100/17/82 106/19/84
f 111/22/85 105/20/83 106/19/84 112/21/86
f 117/24/87 111/22/85 112/21/86 118/23/88
f 123/26/89 117/24/87 118/23/88 124/25/90
f 129/28/91 123/26/89 124/25/90 130/27/92
f 135/30/93 129/28/91 130/27/92 136/29/94
f 141/32/95 135/30/93 136/29/94 142/31/96
f 150/12/78 141/32/95 142/31/96 152/13/79
s 3
f 7/33/12 46/35/97 43/94/20 4/2/9
f 10/34/98 49/37/99 46/35/97 7/33/12
f 13/36/100 52/39/101 49/37/99 10/34/98
f 16/38/102 55/41/103 52/39/101 13/36/100
f 19/40/104 58/43/105 55/41/103 16/38/102
f 22/42/106 61/45/107 58/43/105 19/40/104
f 25/44/108 64/47/109 61/45/107 22/42/106
f 28/46/110 67/49/111 64/47/109 25/44/108
f 31/48/112 70/51/49 67/49/111 28/46/110
f 37/50/30 76/5/33 70/51/49 31/48/112
s 1
f 9/58/14 2/1/1 82/52/4 85/53/65
s 2
f 6/54/6 41/55/18 91/8/39 84/7/7
s 7
f 45/56/41 48/57/113 96/61/73 93/10/42
s 1
f 12/62/114 9/58/14 85/53/65 97/59/115
s 7
f 48/57/113 51/60/116 102/65/117 96/61/73
s 1
f 15/66/118 12/62/114 97/59/115 103/63/119
s 7
f 51/60/116 54/64/120 108/69/121 102/65/117
s 1
f 18/70/122 15/66/118 103/63/119 109/67/123
s 7
f 54/64/120 57/68/124 114/73/125 108/69/121
s 1
f 21/74/126 18/70/122 109/67/123 115/71/127
s 7
f 57/68/124 60/72/128 120/77/129 114/73/125
s 1
f 24/78/130 21/74/126 115/71/127 121/75/131
s 7
f 60/72/128 63/76/132 126/81/133 120/77/129
s 1
f 27/82/134 24/78/130 121/75/131 127/79/135
s 7
f 63/76/132 66/80/136 132/85/137 126/81/133
s 1
f 30/86/138 27/82/134 127/79/135 133/83/139
s 7
f 66/80/136 69/84/140 138/89/141 132/85/137
s 1
f 33/90/142 30/86/138 133/83/139 139/87/143
s 7
f 69/84/140 72/88/44 144/92/144 138/89/141
s 1
f 39/3/27 33/90/142 139/87/143 148/95/28
s 7
f 72/88/44 74/91/47 154/96/53 144/92/144
s 4
f 78/6/35 35/4/22 146/93/25 156/11/55
s 3
f 7/33/12 8/103/11 11/105/145 10/34/98
s 1
f 8/102/15 9/58/14 12/62/114 11/104/146
s 3
f 10/34/98 11/105/145 14/107/147 13/36/100
s 1
f 11/104/146 12/62/114 15/66/118 14/106/148
s 3
f 13/36/100 14/107/147 17/109/149 16/38/102
s 1
f 14/106/148 15/66/118 18/70/122 17/108/150
s 3
f 16/38/102 17/109/149 20/111/151 19/40/104
s 1
f 17/108/150 18/70/122 21/74/126 20/110/152
s 3
f 19/40/104 20/111/151 23/113/153 22/42/106
s 1
f 20/110/152 21/74/126 24/78/130 23/112/154
s 3
f 22/42/106 23/113/153 26/115/155 25/44/108
s 1
f 23/112/154 24/78/130 27/82/134 26/114/156
s 3
f 25/44/108 26/115/155 29/117/157 28/46/110
s 1
f 26/114/156 27/82/134 30/86/138 29/116/158
s 3
f 28/46/110 29/117/157 32/119/159 31/48/112
s 1
f 29/116/158 30/86/138 33/90/142 32/118/160
s 3
f 31/48/112 32/119/159 38/124/161 37/50/30
s 1
f 32/118/160 33/90/142 39/3/27 38/123/162
s 7
f 45/56/41 44/128/163 47/131/164 48/57/113
s 3
f 44/129/165 43/94/20 46/35/97 47/130/166
s 7
f 48/57/113 47/131/164 50/133/167 51/60/116
s 3
f 47/130/166 46/35/97 49/37/99 50/132/168
s 7
f 51/60/116 50/133/167 53/135/169 54/64/120
s 3
f 50/132/168 49/37/99 52/39/101 53/134/170
s 7
f 54/64/120 53/135/169 56/137/171 57/68/124
s 3
f 53/134/170 52/39/101 55/41/103 56/136/172
s 7
f 57/68/124 56/137/171 59/139/173 60/72/128
s 3
f 56/136/172 55/41/103 58/43/105 59/138/174
s 7
f 60/72/128 59/139/173 62/141/175 63/76/132
s 3
f 59/138/174 58/43/105 61/45/107 62/140/176
s 7
f 63/76/132 62/141/175 65/143/177 66/80/136
s 3
f 62/140/176 61/45/107 64/47/109 65/142/178
s 7
f 66/80/136 65/143/177 68/145/179 69/84/140
s 3
f 65/142/178 64/47/109 67/49/111 68/144/180
s 7
f 69/84/140 68/145/179 71/146/45 72/88/44
s 3
f 68/144/180 67/49/111 70/51/49 71/147/48
s 1
f 85/53/65 86/156/64 98/161/181 97/59/115
s 10
f 86/156/68 87/16/67 99/18/81 98/161/182
f 94/15/71 95/160/70 101/162/183 100/17/82
s 7
f 95/160/74 96/61/73 102/65/117 101/162/184
s 1
f 97/59/115 98/161/181 104/163/185 103/63/119
s 10
f 98/161/182 99/18/81 105/20/83 104/163/186
f 100/17/82 101/162/183 107/164/187 106/19/84
s 7
f 101/162/184 102/65/117 108/69/121 107/164/188
s 1
f 103/63/119 104/163/185 110/165/189 109/67/123
s 10
f 104/163/186 105/20/83 111/22/85 110/165/190
f 106/19/84 107/164/187 113/166/191 112/21/86
s 7
f 107/164/188 108/69/121 114/73/125 113/166/192
s 1
f 109/67/123 110/165/189 116/167/193 115/71/127
s 10
f 110/165/190 111/22/85 117/24/87 116/167/194
f 112/21/86 113/166/191 119/168/195 118/23/88
s 7
f 113/166/192 114/73/125 120/77/129 119/168/196
s 1
f 115/71/127 116/167/193 122/169/197 121/75/131
s 10
f 116/167/194 117/24/87 123/26/89 122/169/198
f 118/23/88 119/168/195 125/170/199 124/25/90
s 7
f 119/168/196 120/77/129 126/81/133 125/170/200
s 1
f 121/75/131 122/169/197 128/171/201 127/79/135
s 10
f 122/169/198 123/26/89 129/28/91 128/171/202
f 124/25/90 125/170/199 131/172/203 130/27/92
s 7
f 125/170/200 126/81/133 132/85/137 131/172/204
s 1
f 127/79/135 128/171/201 134/173/205 133/83/139
s 10
f 128/171/202 129/28/91 135/30/93 134/173/206
f 130/27/92 131/172/203 137/174/207 136/29/94
s 7
f 131/172/204 132/85/137 138/89/141 137/174/208
s 1
f 133/83/139 134/173/205 140/175/209 139/87/143
s 10
f 134/173/206 135/30/93 141/32/95 140/175/210
f 136/29/94 137/174/207 143/176/211 142/31/96
s 7
f 137/174/208 138/89/141 144/92/144 143/176/212
s 1
f 139/87/143 140/175/209 149/179/213 148/95/28
s 10
f 140/175/210 141/32/95 150/12/78 149/179/214
f 142/31/96 143/176/211 153/181/215 152/13/79
s 7
f 143/176/212 144/92/144 154/96/53 153/181/216
s 2
f 5/100/16 6/54/6 1/97/5 157/183/217
s 1
f 1/97/2 2/1/1 3/99/13 157/183/218
s 3
f 3/98/10 4/2/9 5/101/19 157/184/219
s 1
f 38/123/162 39/3/27 34/120/26 158/185/220
s 4
f 34/120/23 35/4/22 36/122/34 158/185/221
s 3
f 36/121/31 37/50/30 38/124/161 158/186/222
s 7
f 44/128/163 45/56/41 40/125/40 159/187/223
s 2
f 40/125/37 41/55/18 42/127/17 159/187/224
s 3
f 42/126/21 43/94/20 44/129/165 159/188/225
s 4
f 77/151/36 78/6/35 73/148/54 160/189/226
s 7
f 73/148/51 74/91/47 75/150/46 160/189/227
s 3
f 75/149/50 76/5/33 77/152/32 160/190/228
s 2
f 83/155/8 84/7/7 79/153/61 161/191/229
s 10
f 79/153/58 80/9/57 81/154/66 161/191/230
s 1
f 81/154/63 82/52/4 83/155/3 161/191/231
s 7
f 92/159/43 93/10/42 88/157/72 162/192/232
s 10
f 88/157/69 89/14/60 90/158/59 162/192/233
s 2
f 90/158/62 91/8/39 92/159/38 162/192/234
s 10
f 149/179/214 150/12/78 145/177/77 163/193/235
s 4
f 145/177/75 146/93/25 147/178/24 163/193/236
s 1
f 147/178/29 148/95/28 149/179/213 163/193/237
s 4
f 155/182/56 156/11/55 151/180/76 164/194/238
s 10
f 151/180/80 152/13/79 153/181/215 164/194/239
s 7
f 153/181/216 154/96/53 155/182/52 164/194/240
